<?xml version="1.0" encoding="utf-8"?>
<!-- Generator: Adobe Illustrator 28.3.0, SVG Export Plug-In . SVG Version: 6.00 Build 0)  -->
<svg version="1.1" id="Layer_1" xmlns="http://www.w3.org/2000/svg" xmlns:xlink="http://www.w3.org/1999/xlink" x="0px" y="0px"
	 viewBox="0 0 33 32" style="enable-background:new 0 0 33 32;" xml:space="preserve">
<style type="text/css">
	.st0{fill:#00F6FF;}
</style>
<g id="g8" transform="matrix(1.3333333,0,0,-1.3333333,0,29.333333)">
	<g id="g10" transform="scale(0.1)">
		<path id="path12" class="st0" d="M124.1,152c-5.9,0-10.6,4.8-10.6,10.6v42.5c0,5.9,4.8,10.6,10.6,10.6c5.9,0,10.6-4.8,10.6-10.6
			v-42.5C134.8,156.8,130,152,124.1,152"/>
		<path id="path14" class="st0" d="M124.1-17.9c-5.9,0-10.6,4.8-10.6,10.6v42.5c0,5.9,4.8,10.6,10.6,10.6c5.9,0,10.6-4.8,10.6-10.6
			V-7.3C134.8-13.2,130-17.9,124.1-17.9"/>
		<path id="path16" class="st0" d="M79.1,133.3c-2.7,0-5.4,1-7.5,3.1l-30.1,30.1c-4.1,4.1-4.1,10.9,0,15c4.1,4.1,10.9,4.1,15,0
			l30.1-30.1c4.1-4.2,4.1-10.9,0-15C84.5,134.4,81.8,133.3,79.1,133.3"/>
		<path id="path18" class="st0" d="M199.3,13.2c-2.7,0-5.4,1-7.5,3.1l-30.1,30.1c-4.1,4.1-4.1,10.9,0,15c4.1,4.1,10.9,4.1,15,0
			l30.1-30.1c4.2-4.1,4.2-10.9,0-15C204.7,14.2,202,13.2,199.3,13.2"/>
		<path id="path20" class="st0" d="M60.4,88.3H17.9c-5.9,0-10.6,4.8-10.6,10.6s4.8,10.6,10.6,10.6h42.5c5.9,0,10.6-4.8,10.6-10.6
			S66.3,88.3,60.4,88.3"/>
		<path id="path22" class="st0" d="M230.4,88.3h-42.5c-5.9,0-10.6,4.8-10.6,10.6s4.8,10.6,10.6,10.6h42.5c5.9,0,10.6-4.8,10.6-10.6
			S236.2,88.3,230.4,88.3"/>
		<path id="path24" class="st0" d="M49,13.2c-2.7,0-5.4,1-7.5,3.1c-4.1,4.1-4.1,10.9,0,15l30.1,30.1c4.1,4.1,10.9,4.1,15,0
			c4.1-4.1,4.1-10.9,0-15L56.5,16.3C54.5,14.2,51.8,13.2,49,13.2"/>
		<path id="path26" class="st0" d="M169.2,133.3c-2.7,0-5.4,1-7.5,3.1c-4.1,4.1-4.1,10.9,0,15l30.1,30.1c4.1,4.1,10.9,4.1,15,0
			c4.2-4.2,4.2-10.9,0-15l-30.1-30.1C174.6,134.4,171.9,133.3,169.2,133.3"/>
	</g>
</g>
</svg>
