<?xml version="1.0" encoding="UTF-8"?>
<svg id="Layer_1" data-name="Layer 1" xmlns="http://www.w3.org/2000/svg" viewBox="0 0 25.41 28.23">
  <defs>
    <style>
      .cls-1 {
        fill: #00f6ff;
        stroke-width: 0px;
      }
    </style>
  </defs>
  <path class="cls-1" d="M11.29,24.59v-9.67L2.82,10.02v9.67l8.47,4.9ZM14.11,24.59l8.47-4.9v-9.67l-8.47,4.9v9.67ZM12.7,12.49l8.36-4.83L12.7,2.82,4.34,7.66l8.36,4.83ZM1.41,22.16c-.45-.26-.79-.6-1.04-1.02s-.37-.89-.37-1.41v-11.22c0-.52.12-.99.37-1.41s.59-.76,1.04-1.02L11.29.39c.45-.26.92-.39,1.41-.39s.96.13,1.41.39l9.88,5.68c.45.26.79.6,1.04,1.02s.37.89.37,1.41v11.22c0,.52-.12.99-.37,1.41s-.59.76-1.04,1.02l-9.88,5.68c-.45.26-.92.39-1.41.39s-.96-.13-1.41-.39L1.41,22.16Z"/>
</svg>