<?xml version="1.0" encoding="utf-8"?>
<!-- Generator: Adobe Illustrator 28.3.0, SVG Export Plug-In . SVG Version: 6.00 Build 0)  -->
<svg version="1.1" id="Layer_1" xmlns="http://www.w3.org/2000/svg" xmlns:xlink="http://www.w3.org/1999/xlink" x="0px" y="0px"
	 viewBox="0 0 30.4 29.8" style="enable-background:new 0 0 30.4 29.8;" xml:space="preserve">
<style type="text/css">
	.st0{fill:#00F6FF;}
</style>
<path class="st0" d="M91,14l3.1-3.1l-2-2l-1.6,1.6l-2-2l1.5-1.6l-1.6-1.6l-3.1,3.1L91,14z M102.8,25.8l3.1-3.1l-1.6-1.6l-1.6,1.5
	l-2-2l1.5-1.6l-2-2l-3.1,3.1L102.8,25.8z M103.7,5.5 M88.8,28.4h-6.1v-6.1l6.3-6.3l-7.7-7.7l7.2-7.2l7.7,7.7l5.4-5.5
	c0.3-0.3,0.6-0.5,1-0.6c0.4-0.1,0.7-0.2,1.1-0.2s0.8,0.1,1.1,0.2c0.4,0.1,0.7,0.4,1,0.6l1.9,1.9c0.3,0.3,0.5,0.6,0.6,1
	c0.1,0.4,0.2,0.7,0.2,1.1c0,0.4-0.1,0.7-0.2,1.1c-0.1,0.3-0.4,0.7-0.6,1l-5.4,5.5l7.7,7.7l-7.2,7.2l-7.7-7.7L88.8,28.4z M85.6,25.6
	h2l14.1-14l-2-2l-14,14.1V25.6z M100.6,10.6l-1-1l2,2L100.6,10.6z"/>
<path class="st0" d="M2.3,28.8v-6.4L22,2.8c0.3-0.3,0.6-0.5,1-0.7c0.4-0.1,0.7-0.2,1.1-0.2c0.4,0,0.8,0.1,1.1,0.2s0.7,0.4,1,0.7
	l2.1,2.1c0.3,0.3,0.5,0.6,0.7,1c0.1,0.4,0.2,0.7,0.2,1.1c0,0.4-0.1,0.7-0.2,1.1c-0.1,0.4-0.4,0.7-0.7,1L8.7,28.8H2.3z M5.3,25.8h2.1
	l14.7-14.6l-1-1.1L20,9L5.3,23.7V25.8z M17.3,28.8c1.8,0,3.6-0.5,5.1-1.4c1.6-0.9,2.4-2.2,2.4-3.8c0-0.9-0.2-1.7-0.7-2.3
	c-0.5-0.6-1.1-1.2-1.9-1.7l-2.2,2.2c0.6,0.2,1,0.5,1.3,0.8c0.3,0.3,0.5,0.6,0.5,1c0,0.6-0.5,1.1-1.4,1.6c-0.9,0.5-1.9,0.7-3.1,0.7
	c-0.4,0-0.8,0.1-1.1,0.4c-0.3,0.3-0.4,0.6-0.4,1.1c0,0.4,0.1,0.8,0.4,1.1C16.5,28.7,16.9,28.8,17.3,28.8z M3.2,17.4l2.2-2.2
	c-0.5-0.2-0.9-0.4-1.2-0.6s-0.4-0.4-0.4-0.7c0-0.3,0.2-0.6,0.7-0.9c0.4-0.3,1.4-0.8,2.8-1.4C9.5,10.6,11,9.8,11.7,9
	c0.7-0.8,1.1-1.6,1.1-2.6c0-1.4-0.5-2.5-1.6-3.3S8.6,1.9,6.8,1.9c-1.1,0-2.1,0.2-3,0.6S2.3,3.4,1.8,4C1.5,4.3,1.4,4.6,1.4,5
	c0,0.4,0.2,0.7,0.6,1c0.3,0.3,0.7,0.4,1.1,0.3s0.7-0.2,1-0.5c0.3-0.3,0.7-0.6,1.2-0.7C5.7,5,6.2,4.9,6.8,4.9c1,0,1.8,0.1,2.3,0.4
	s0.7,0.6,0.7,1c0,0.3-0.2,0.7-0.7,1c-0.4,0.3-1.4,0.8-3,1.5c-2,0.9-3.4,1.7-4.1,2.4s-1.2,1.6-1.2,2.6c0,0.8,0.2,1.5,0.6,2
	C1.9,16.5,2.5,17,3.2,17.4z"/>
</svg>
