<svg version="1.1" id="Layer_1" xmlns="http://www.w3.org/2000/svg" x="0" y="0" viewBox="0 0 33 32" xml:space="preserve"><style type="text/css">.st0{fill:#00f6ff}</style><g id="g8"><g id="g10">
<path id="path12" class="st0" d="M124.1 152c-5.9 0-10.6 4.8-10.6 10.6v42.5c0 5.9 4.8 10.6 10.6 10.6 5.9 0 10.6-4.8 10.6-10.6v-42.5c.1-5.8-4.7-10.6-10.6-10.6" transform="matrix(.13333 0 0 -.13333 0 29.333)"/>
<path id="path14" class="st0" d="M124.1-17.9c-5.9 0-10.6 4.8-10.6 10.6v42.5c0 5.9 4.8 10.6 10.6 10.6 5.9 0 10.6-4.8 10.6-10.6V-7.3c.1-5.9-4.7-10.6-10.6-10.6" transform="matrix(.13333 0 0 -.13333 0 29.333)"/>
<path id="path16" class="st0" d="M79.1 133.3c-2.7 0-5.4 1-7.5 3.1l-30.1 30.1c-4.1 4.1-4.1 10.9 0 15s10.9 4.1 15 0l30.1-30.1c4.1-4.2 4.1-10.9 0-15-2.1-2-4.8-3.1-7.5-3.1" transform="matrix(.13333 0 0 -.13333 0 29.333)"/>
<path id="path18" class="st0" d="M199.3 13.2c-2.7 0-5.4 1-7.5 3.1l-30.1 30.1c-4.1 4.1-4.1 10.9 0 15s10.9 4.1 15 0l30.1-30.1c4.2-4.1 4.2-10.9 0-15-2.1-2.1-4.8-3.1-7.5-3.1" transform="matrix(.13333 0 0 -.13333 0 29.333)"/>
<path id="path20" class="st0" d="M60.4 88.3H17.9c-5.9 0-10.6 4.8-10.6 10.6s4.8 10.6 10.6 10.6h42.5c5.9 0 10.6-4.8 10.6-10.6s-4.7-10.6-10.6-10.6" transform="matrix(.13333 0 0 -.13333 0 29.333)"/><path id="path22" class="st0" d="M230.4 88.3h-42.5c-5.9 0-10.6 4.8-10.6 10.6s4.8 10.6 10.6 10.6h42.5c5.9 0 10.6-4.8 10.6-10.6s-4.8-10.6-10.6-10.6" transform="matrix(.13333 0 0 -.13333 0 29.333)"/><path id="path24" class="st0" d="M49 13.2c-2.7 0-5.4 1-7.5 3.1-4.1 4.1-4.1 10.9 0 15l30.1 30.1c4.1 4.1 10.9 4.1 15 0s4.1-10.9 0-15L56.5 16.3c-2-2.1-4.7-3.1-7.5-3.1" transform="matrix(.13333 0 0 -.13333 0 29.333)"/>
<path id="path26" class="st0" d="M169.2 133.3c-2.7 0-5.4 1-7.5 3.1-4.1 4.1-4.1 10.9 0 15l30.1 30.1c4.1 4.1 10.9 4.1 15 0 4.2-4.2 4.2-10.9 0-15l-30.1-30.1c-2.1-2-4.8-3.1-7.5-3.1" transform="matrix(.13333 0 0 -.13333 0 29.333)"/></g></g></svg>